<?xml version="1.0" encoding="UTF-8" standalone="no"?>
<!-- Created with Inkscape (http://www.inkscape.org/) -->

<svg
   version="1.1"
   id="svg2"
   width="256"
   height="256"
   viewBox="0 0 256 256"
   sodipodi:docname="satanicgoat.svg"
   inkscape:export-filename="satanicgoat.png"
   inkscape:export-xdpi="192"
   inkscape:export-ydpi="192"
   inkscape:version="1.2.2 (b0a8486541, 2022-12-01)"
   xmlns:inkscape="http://www.inkscape.org/namespaces/inkscape"
   xmlns:sodipodi="http://sodipodi.sourceforge.net/DTD/sodipodi-0.dtd"
   xmlns="http://www.w3.org/2000/svg"
   xmlns:svg="http://www.w3.org/2000/svg">
  <defs
     id="defs6" />
  <sodipodi:namedview
     id="namedview4"
     pagecolor="#000000"
     bordercolor="#666666"
     borderopacity="1.0"
     inkscape:showpageshadow="2"
     inkscape:pageopacity="0"
     inkscape:pagecheckerboard="0"
     inkscape:deskcolor="#d1d1d1"
     showgrid="false"
     inkscape:zoom="1.2050654"
     inkscape:cx="88.791863"
     inkscape:cy="243.14033"
     inkscape:window-width="1920"
     inkscape:window-height="1011"
     inkscape:window-x="0"
     inkscape:window-y="32"
     inkscape:window-maximized="1"
     inkscape:current-layer="g8" />
  <g
     inkscape:groupmode="layer"
     inkscape:label="Image"
     id="g8">
    <path
       style="fill:#e6e6e6;fill-opacity:1;stroke:none;stroke-width:1.02828;stroke-dasharray:none;stroke-opacity:1"
       d="m 123.4363,255.05811 c -0.13465,-0.51467 -0.92989,-2.36556 -1.7674,-4.11311 -1.35614,-2.82978 -1.66485,-3.17737 -2.82213,-3.17737 -2.91804,0 -7.55948,-4.16795 -9.64643,-8.66236 -1.53919,-3.31475 -1.86788,-8.51835 -0.75059,-11.8822 l 0.77253,-2.32588 -2.55263,-2.75716 c -3.24619,-3.50627 -5.65039,-8.47115 -7.839311,-16.18895 -2.68093,-9.45265 -3.86326,-11.53654 -10.54866,-18.59226 -12.05651,-12.7244 -17.2763,-21.20187 -19.34625,-31.42045 l -0.78082,-3.8546 -1.55697,2.92836 c -2.15298,4.04924 -6.2192,8.29137 -9.21155,9.61001 -7.96466,3.50984 -15.86443,-2.09768 -15.87706,-11.27004 -0.0127,-9.50533 5.38743,-15.82358 24.67414,-28.86718 6.04805,-4.0903 10.05426,-7.47697 10.05426,-8.49941 0,-0.6899 -2.89391,-4.95969 -5.46181,-8.05856 -3.60692,-4.35278 -8.72537,-9.52521 -13.47928,-13.62149 -12.70773,-10.94973 -15.81326,-14.3836 -18.68722,-20.66279 -2.68814,-5.87329 -3.27579,-8.91886 -3.2619,-16.90574 0.0127,-8.12615 0.78951,-12.07776 3.88317,-19.788734 2.20229,-5.48925 3.32959,-7.174938 4.79815,-7.174938 0.90474,0 1.13955,0.292171 1.37726,1.71379 1.3098,7.83267 4.76378,13.889232 12.06034,21.147852 5.00429,4.97828 9.45145,8.04935 18.54276,12.80504 3.51899,1.84082 7.83775,4.26226 9.59725,5.38102 9.89299,6.29039 17.277881,13.85522 20.386841,20.8836 l 0.86028,1.94473 3.08676,-0.92402 c 1.69773,-0.50821 3.44484,-1.23447 3.88249,-1.61391 1.19109,-1.03272 2.92403,-4.18484 3.52177,-6.40603 0.2909,-1.08121 0.84545,-2.08726 1.23216,-2.23566 1.12641,-0.43225 3.7041,1.06667 4.83422,2.81111 0.57278,0.88417 1.15715,1.6101 1.29857,1.61322 0.14132,0.003 1.24949,-2.0509 2.46235,-4.56445 1.24946,-2.58934 2.48479,-4.57012 2.85036,-4.57012 2.82269,0 6.60836,4.44246 7.77007,9.11796 l 0.39187,1.57729 1.77652,-1.92005 c 0.97703,-1.056 2.15176,-1.92003 2.61057,-1.92003 1.21072,0 3.20272,3.28627 3.47926,5.73969 0.18994,1.68439 0.45448,2.18314 1.336,2.51831 2.90621,1.1049 3.07813,1.05463 4.18506,-1.22378 3.30359,-6.79985 9.13099,-11.92496 23.89624,-21.01663 23.90258,-14.71798 32.6661,-24.30667 35.88072,-39.259398 0.28709,-1.335089 0.64642,-1.864293 1.33265,-1.96249 0.78127,-0.111789 1.2964,0.620161 3.05573,4.341632 3.63202,7.682486 4.91638,13.012306 4.91638,20.401676 0,9.68702 -2.76318,18.63644 -8.34658,27.03341 -1.00282,1.50813 -6.60187,7.47213 -12.44245,13.25332 -5.84048,5.78119 -11.43711,11.53953 -12.437,12.79633 -3.34138,4.20012 -6.62422,9.73533 -6.3278,10.66931 0.25434,0.80137 6.24336,5.29118 13.50417,10.12365 12.87392,8.56837 19.0468,16.12599 19.54777,23.93315 0.26712,4.15905 -0.62099,7.13905 -2.93133,9.83819 -4.61461,5.39114 -11.81729,5.19717 -17.48529,-0.47081 -2.32399,-2.32401 -4.33936,-5.16272 -5.49015,-7.73299 l -0.82864,-1.85095 -0.95612,3.81227 c -2.71252,10.81485 -7.29083,18.04575 -19.69699,31.10859 -7.07941,7.45415 -8.11817,9.26112 -11.22055,19.51907 -2.43355,8.04624 -4.51926,12.36789 -7.57057,15.68633 l -2.11577,2.30096 0.92255,2.3141 c 0.68705,1.72326 0.93012,3.42269 0.95201,6.65574 0.0252,3.81086 -0.12321,4.66761 -1.22005,7.00865 -2.94781,6.2923 -8.81321,10.9321 -10.34949,8.18696 -0.39733,-0.71001 -0.50102,-0.65913 -0.9241,0.45353 -0.73658,1.93736 -3.97941,5.18882 -6.23028,6.24685 -2.70922,1.27348 -5.23972,1.28205 -5.57006,0.019 z m 5.63462,-4.64212 c 2.50121,-2.3055 3.54893,-4.2442 4.27145,-7.904 0.80475,-4.07607 0.91941,-4.3416 1.87399,-4.3416 0.62269,0 1.31936,0.87756 2.40297,3.02703 l 1.52603,3.02703 1.46008,-1.77026 c 3.03714,-3.68212 4.01288,-8.92731 2.56681,-13.79695 l -0.70296,-2.36691 -1.69641,0.73909 c -7.66849,3.34095 -16.86378,3.67123 -24.85338,0.89273 l -3.06994,-1.06762 -0.48262,1.38453 c -0.75297,2.15999 -0.57351,6.48332 0.37249,8.97302 0.90676,2.38639 3.58456,5.96339 4.47456,5.9772 0.29217,0.003 0.66431,-0.78022 0.82713,-1.74387 0.35895,-2.12467 1.82002,-4.64605 2.6922,-4.64605 1.04238,0 1.52062,0.99077 1.83645,3.80455 0.1645,1.46414 0.73048,3.82915 1.25807,5.25564 0.52758,1.42648 1.26814,3.46763 1.64567,4.53589 0.37757,1.06826 0.87235,1.94232 1.09954,1.94232 0.22707,0 1.35125,-0.86483 2.49787,-1.92177 z m 6.04076,-25.54919 c 4.50232,-1.13492 7.46851,-2.83373 10.25192,-5.87148 2.8488,-3.10919 4.36749,-6.36993 6.52481,-14.00938 0.91483,-3.23952 2.55996,-7.76039 3.65581,-10.04642 1.78466,-3.72277 2.68816,-4.88551 8.66055,-11.14576 8.16045,-8.55388 11.9231,-13.46324 14.89207,-19.4307 5.0952,-10.24112 6.16052,-21.2013 3.18975,-32.81657 -1.06692,-4.17166 -3.11417,-9.453 -4.1694,-10.7562 -0.76979,-0.95069 -0.90824,-0.96959 -2.56083,-0.34962 -6.30283,2.36448 -14.70213,-0.0327 -20.51733,-5.85535 -4.00402,-4.00934 -5.34368,-7.05581 -5.59112,-12.71519 l -0.19468,-4.45252 -1.88924,-0.48758 c -4.85052,-1.25172 -4.8599,-1.26042 -4.8599,-4.52601 0,-1.43547 -0.13525,-2.74525 -0.30073,-2.91058 -0.16548,-0.16545 -1.14225,0.37334 -2.17082,1.19713 -4.45912,3.57113 -6.76333,4.11308 -6.22761,1.46472 0.47528,-2.3491 0.0154,-5.36333 -1.14636,-7.49575 -0.70476,-1.29485 -1.41349,-2.1946 -1.57506,-1.99939 -0.16162,0.19531 -0.68138,1.28037 -1.15532,2.41147 -1.1179,2.6682 -2.92848,5.32561 -4.94543,7.25837 -1.89782,1.81866 -3.0443,1.67568 -3.0443,-0.37963 0,-1.5034 -1.26795,-5.05071 -1.80535,-5.05071 -0.1842,0 -0.56929,0.78181 -0.85558,1.73736 -0.28613,0.95555 -1.2957,2.84277 -2.24313,4.19383 -1.66958,2.38086 -1.83517,2.48566 -5.3787,3.40402 l -3.65608,0.94755 0.15688,2.86821 c 0.62267,11.37664 -8.369401,20.21088 -20.572061,20.21088 -2.41814,0 -4.31616,-0.28423 -5.88872,-0.88174 l -2.32053,-0.88173 -1.34375,2.1189 c -4.82781,7.61265 -7.46911,22.51428 -5.74096,32.38924 1.94064,11.0894 6.50768,18.81263 18.68011,31.58968 7.16871,7.52481 8.37648,9.64189 11.497891,20.15461 1.13441,3.82062 2.71406,8.27 3.51035,9.88747 4.60471,9.35351 16.30629,13.4621 29.13265,10.22887 z m -14.08717,-12.20755 c -3.56297,-1.18909 -4.98933,-2.01054 -7.65927,-4.41109 -2.75922,-2.48076 -3.25597,-3.60673 -2.13684,-4.84336 1.18145,-1.30549 1.92581,-1.10094 4.39343,1.20723 2.24716,2.10196 5.73578,3.96511 8.48751,4.53284 l 1.48529,0.30646 v -5.99181 c 0,-5.31236 -0.0908,-6.01843 -0.79977,-6.22657 -0.43988,-0.12893 -1.93086,-0.79101 -3.31333,-1.47094 -2.17599,-1.07016 -2.5325,-1.43156 -2.65451,-2.6911 -0.22135,-2.28619 1.18618,-2.78418 4.18145,-1.47923 3.18466,1.38748 7.13916,1.39504 9.81007,0.019 2.12607,-1.09551 3.46567,-0.9728 4.19185,0.38401 0.68591,1.28164 -1.06863,3.14149 -4.38014,4.64301 -2.13998,0.97028 -2.80699,1.49165 -2.69043,2.10288 0.0854,0.44696 0.17084,3.02738 0.18994,5.73427 l 0.035,4.92155 1.25676,-0.28391 c 2.47515,-0.559 6.77816,-2.83814 8.86758,-4.69687 1.16969,-1.04054 2.41393,-1.89186 2.76492,-1.89186 1.00483,0 1.73513,0.98525 1.73513,2.34088 0,1.6739 -3.27661,4.49012 -7.76925,6.67771 -3.21261,1.56428 -3.74288,1.67797 -8.4547,1.81249 -3.94725,0.11274 -5.56707,-0.0369 -7.54071,-0.69536 z m 29.1574,-39.91281 c -4.97421,-0.66275 -8.61262,-3.30551 -10.54803,-7.66147 -1.27694,-2.87398 -0.92564,-7.271 0.84007,-10.51522 2.7002,-4.96119 9.18938,-9.5322 15.35804,-10.81841 10.18004,-2.12261 19.54864,4.80344 18.50098,13.67757 -1.13865,9.64564 -12.52406,16.86669 -24.15106,15.31753 z m 10.25213,-4.88786 c 9.20054,-3.25654 13.06375,-12.0332 7.67059,-17.42638 -5.29033,-5.29043 -15.61057,-3.81786 -22.05933,3.14757 -2.79325,3.01703 -3.8128,5.76678 -3.28866,8.8694 0.36875,2.18256 3.2868,5.33001 5.69327,6.14075 2.31329,0.77939 8.84149,0.38096 11.98413,-0.73134 z m -5.49428,-2.01022 c -0.25975,-0.31409 -0.54211,-1.18726 -0.62722,-1.94013 -0.12449,-1.10199 -0.41246,-1.41385 -1.47681,-1.59953 -2.81194,-0.49059 -2.72456,-3.29077 0.11147,-3.57297 l 1.43917,-0.14322 v -3.83955 c 0,-3.37186 0.11142,-3.89915 0.91401,-4.32873 0.64941,-0.34756 1.17865,-0.34756 1.82806,0 0.80346,0.43002 0.91401,0.95687 0.91401,4.3577 0,3.79139 0.0221,3.8685 1.10991,3.8685 0.97347,0 2.54621,1.02672 2.54621,1.66222 0,1.01576 -1.12886,1.99386 -2.30113,1.99386 -1.22823,0 -1.35499,0.141 -1.35499,1.50813 0,2.28114 -1.87914,3.51289 -3.10269,2.03372 z m -57.895401,6.48205 c -9.2983,-1.55456 -15.77981,-8.11277 -15.77981,-15.96658 0,-5.07358 3.16927,-9.54885 8.11712,-11.46198 5.58312,-2.15878 13.811171,-1.02914 19.557851,2.68509 5.76567,3.72659 8.38889,9.17125 7.06915,14.67254 -1.81904,7.58254 -9.48815,11.65519 -18.964311,10.07093 z m 10.126141,-4.73806 c 6.08323,-2.83232 6.9861,-10.67544 1.75743,-15.2663 -5.06333,-4.44563 -13.734101,-5.95174 -19.124591,-3.32189 -6.21748,3.03331 -6.33438,11.27511 -0.22865,16.11102 4.45783,3.53066 12.808111,4.70623 17.595681,2.47717 z m -8.900171,-1.74399 c -0.25977,-0.31409 -0.54213,-1.18726 -0.62721,-1.94013 -0.12449,-1.10199 -0.41247,-1.41385 -1.47685,-1.59953 -2.8119,-0.49059 -2.72454,-3.29077 0.11147,-3.57297 l 1.43921,-0.14322 v -3.83955 c 0,-3.37186 0.11147,-3.89915 0.91402,-4.32873 0.64941,-0.34756 1.17865,-0.34756 1.828061,0 0.80349,0.43002 0.91401,0.95687 0.91401,4.3577 v 3.8685 h 1.38082 c 1.025,0 1.5134,0.2909 1.89525,1.12898 0.6703,1.47117 -0.14926,2.5271 -1.96099,2.5271 -1.1831,0 -1.31508,0.15148 -1.31508,1.50813 0,2.28114 -1.879191,3.51289 -3.102711,2.03372 z m 26.646791,-23.18097 c -0.97159,-1.50133 -2.29632,-3.71213 -2.94382,-4.91288 -1.02688,-1.90424 -1.38164,-2.19806 -2.77681,-2.29991 -3.68584,-0.26899 -10.04503,-1.60649 -10.55388,-2.21966 -0.90842,-1.09456 0.14926,-2.61446 4.16274,-5.98203 3.7028,-3.10683 3.7028,-3.10683 3.42273,-4.93486 -1.26941,-8.28534 -1.15057,-10.73978 0.52,-10.73978 0.42529,0 3.08349,1.22387 5.90712,2.71971 l 5.13379,2.71971 5.30042,-2.75067 c 6.65743,-3.4549 7.13338,-3.39579 7.12004,0.88387 -0.006,1.67972 -0.29054,4.39079 -0.63386,6.02462 -0.37632,1.7903 -0.45515,3.07717 -0.19817,3.23882 0.23437,0.14767 1.80494,1.4181 3.49023,2.82343 3.65221,3.04551 4.90526,4.87497 4.07816,5.95405 -0.58438,0.76247 -6.90513,2.1456 -9.862,2.15805 -2.12777,0.01 -2.30546,0.15784 -3.94837,3.30516 -0.75403,1.44465 -2.04137,3.55262 -2.86074,4.68436 -2.1097,2.91404 -3.11867,2.78748 -5.35745,-0.67199 z m 4.5188,-4.3213 c 0.65219,-1.11291 1.18585,-2.1411 1.18585,-2.28483 0,-0.14386 -1.23394,-0.26136 -2.74211,-0.26136 -1.50811,0 -2.74204,0.1264 -2.74204,0.28073 0,0.69848 2.45335,4.69617 2.76412,4.50411 0.19149,-0.11846 0.88198,-1.12588 1.53418,-2.23878 z m 2.07849,-6.14917 c 0.84012,-0.23437 1.38409,-0.99179 2.17076,-3.02271 0.57733,-1.49045 1.04973,-2.95986 1.04973,-3.26531 0,-0.30551 -1.54421,-1.51782 -3.43154,-2.69411 l -3.43153,-2.13878 -3.22385,1.91527 c -1.77315,1.05339 -3.3361,2.20765 -3.47322,2.56502 -0.1372,0.35736 0.2188,1.97563 0.79079,3.59609 1.02799,2.91188 1.06194,2.9483 2.90588,3.11751 3.08999,0.28359 5.4582,0.25755 6.64298,-0.073 z m -12.99909,-2.48579 c -0.38617,-0.92423 -0.85364,-1.6774 -1.03879,-1.67365 -0.18515,0.003 -1.15921,0.70384 -2.16465,1.55576 l -1.82806,1.54901 1.82806,0.30265 c 1.00544,0.16641 2.13652,0.35632 2.51357,0.42187 1.20526,0.2096 1.41035,-0.4313 0.68987,-2.15568 z m 22.79046,1.5344 c 0.73853,-0.26486 0.58263,-0.51041 -1.11831,-1.76127 -1.08716,-0.79947 -2.10918,-1.45358 -2.27121,-1.45358 -0.25312,0 -1.35335,3.07321 -1.35335,3.77988 0,0.29311 3.51844,-0.12608 4.74287,-0.56503 z m -19.06943,-10.82032 c 2.22689,-1.30504 2.22982,-1.29491 -0.85086,-2.92347 -2.09456,-1.10726 -2.77271,-1.13358 -2.48823,-0.0965 0.12068,0.43987 0.3495,1.57098 0.50851,2.51357 0.1591,0.94256 0.39744,1.71379 0.52981,1.71379 0.13242,0 1.16769,-0.5433 2.30077,-1.20732 z m 14.04096,-0.22072 c 0.34965,-1.74866 0.37127,-3.59898 0.0422,-3.59898 -0.62032,0 -4.84497,2.37585 -4.62172,2.59913 0.7268,0.72674 3.33422,2.38616 3.78,2.4056 0.28267,0.0127 0.64267,-0.62026 0.79976,-1.40575 z m -80.244441,40.76884 c 3.40748,-1.76104 6.75872,-6.07575 8.90334,-11.46299 1.37208,-3.44671 3.08946,-9.60309 2.67373,-9.58463 -0.15625,0.006 -1.10688,1.25756 -2.11229,2.77919 -3.0345,4.59241 -9.78112,10.1939 -11.21246,9.30932 -1.07508,-0.66446 -0.19372,-2.31724 3.16301,-5.93156 1.98237,-2.13452 4.94112,-5.88689 6.57495,-8.3386 3.55093,-5.3284 7.16223,-11.86181 6.24377,-11.29592 -2.64924,1.63221 -11.21661,7.60033 -13.49363,9.39977 -4.26408,3.36973 -8.84344,8.4703 -10.17395,11.33184 -1.51649,3.26149 -1.67035,8.03083 -0.34511,10.69894 1.80929,3.64265 6.09432,4.99876 9.77864,3.09464 z m 150.450911,-0.0915 c 4.11657,-2.31363 5.17325,-8.50088 2.38366,-13.95754 -2.62848,-5.14173 -8.24623,-10.3189 -18.94846,-17.46256 -2.70206,-1.80363 -4.91288,-3.18956 -4.91288,-3.07984 0,0.10956 1.32184,2.53501 2.93741,5.38956 3.67265,6.4892 6.37137,10.19927 10.88718,14.96747 1.94802,2.05684 3.54187,3.90801 3.54187,4.1137 0,0.20579 -0.30841,0.62979 -0.68515,0.94253 -0.54741,0.45433 -0.97599,0.44807 -2.13291,-0.0318 -2.10543,-0.87212 -7.02279,-5.64346 -9.62295,-9.33727 -1.76896,-2.51297 -2.18549,-2.90505 -1.94231,-1.82802 2.91604,12.91307 8.77345,21.20387 15.00663,21.24061 0.97115,0.006 2.54075,-0.42517 3.48791,-0.95752 z m -32.21353,-44.21478 c 1.70836,-0.77606 4.79477,-3.72912 4.79477,-4.58762 0,-0.2096 -1.54333,-0.48005 -3.42958,-0.60111 -8.82123,-0.56611 -17.81434,-8.76961 -18.80763,-17.15632 -0.15596,-1.31739 -0.43538,-2.39524 -0.62079,-2.39524 -0.18546,0 -0.82514,1.07969 -1.42162,2.3993 -0.91117,2.01578 -1.08458,3.13631 -1.08458,7.01019 0,4.49629 0.0417,4.67797 1.65414,7.31216 4.03826,6.59486 13.35522,10.54453 18.91529,8.01864 z m -82.265961,-0.68384 c 4.93861,-1.3212 9.025671,-4.30447 10.922641,-7.97278 1.61424,-3.12166 1.71313,-8.75296 0.23247,-13.23947 l -0.53928,-1.63399 -0.82423,2.66385 c -1.01147,3.26912 -3.501041,6.96753 -6.152791,9.14048 -3.79321,3.10823 -11.81963,6.14357 -16.32084,6.172 -0.69124,0.003 -1.25681,0.17181 -1.25681,0.37217 0,0.70066 3.44176,3.70841 5.02715,4.3932 1.99437,0.86145 5.91055,0.90741 8.91169,0.10448 z m 89.592521,-7.76242 c 0.01,-0.0384 1.19261,-1.55018 2.62787,-3.35908 1.43516,-1.80894 2.60949,-3.40275 2.60949,-3.54185 0,-0.1391 -0.69812,-0.25279 -1.55142,-0.25279 -4.30791,0 -11.10481,-3.43508 -14.81664,-7.48823 -2.41404,-2.63596 -4.65364,-7.22444 -4.65411,-9.53544 -1.5e-4,-0.94259 -0.19658,-1.71379 -0.4361,-1.71379 -0.23972,0 -1.62777,1.10961 -3.08476,2.46578 l -2.64913,2.46581 0.0129,3.81811 c 0.01,3.15771 0.22356,4.27281 1.23209,6.44712 3.23336,6.97242 11.08741,11.73293 18.17805,11.01803 1.38244,-0.1394 2.52175,-0.28486 2.53184,-0.32357 z m -97.343471,-0.99807 c 8.21725,-2.11006 14.06399,-7.73244 15.07147,-14.49316 0.5495,-3.68737 0.0127,-5.09207 -3.28662,-8.58872 -1.65113,-1.75029 -3.13141,-3.18061 -3.2895,-3.17852 -0.15815,0.002 -0.33523,1.16709 -0.39376,2.58881 -0.20135,4.89348 -3.26074,9.66307 -8.43199,13.1456 -2.45016,1.65002 -8.29732,3.68517 -11.92266,4.14975 l -2.1806,0.27947 2.75186,3.049 c 1.5135,1.67696 2.75185,3.20611 2.75185,3.39812 0,0.61365 6.10916,0.37401 8.92995,-0.35032 z M 193.24389,95.02521 c 1.69234,-1.57848 3.10191,-3.0242 3.13224,-3.21272 0.0319,-0.18864 -0.41896,-0.34276 -0.9985,-0.34276 -2.06305,0 -6.78146,-1.9507 -9.4241,-3.89607 -4.30204,-3.16701 -6.88851,-7.66416 -6.88851,-11.97718 0,-2.46196 0.24482,-2.517 -5.97053,1.34217 l -4.63403,2.87729 0.21409,2.75099 c 0.42235,5.42806 4.39167,10.71902 10.07722,13.43251 3.70339,1.76746 6.20985,2.337 9.17748,2.08541 2.00554,-0.1699 2.55666,-0.48735 5.31464,-3.05964 z M 75.028929,97.14038 c 10.12848,-2.62412 15.86852,-9.7841 14.02023,-17.48856 -0.53244,-2.21956 -0.70438,-2.40598 -4.4657,-4.84248 -2.15154,-1.39374 -4.05934,-2.53409 -4.23953,-2.53409 -0.18007,0 -0.42901,1.4175 -0.553,3.15 -0.28169,3.9385 -1.64602,6.86314 -4.56371,9.78379 -2.6461,2.64876 -7.57902,5.08662 -11.94024,5.90088 l -3.12472,0.58339 3.35321,3.07162 c 3.33057,3.05084 3.37128,3.07171 6.02932,3.08727 1.47184,0.01 3.93971,-0.31186 5.48414,-0.71182 z M 204.08632,84.41266 c 2.07376,-2.12947 3.77037,-4.05308 3.77037,-4.27475 0,-0.22167 -1.2184,-0.4145 -2.70752,-0.42854 -3.5759,-0.0337 -6.86209,-1.17468 -9.58727,-3.32885 -2.91429,-2.30362 -4.16981,-4.13464 -5.05678,-7.37511 l -0.72814,-2.66016 -3.41372,2.31353 c -1.87754,1.27243 -3.60221,2.64966 -3.83262,3.06053 -0.65966,1.17627 -0.47008,5.64296 0.31814,7.49782 0.9258,2.17837 4.10787,5.61993 6.48376,7.01228 2.62226,1.53671 6.50271,2.52351 8.92689,2.27002 1.87353,-0.19594 2.39216,-0.55969 5.82689,-4.08677 z M 64.302709,87.78632 c 3.4051,-0.78501 6.87854,-2.78329 9.14111,-5.25888 2.37901,-2.603 3.2506,-4.83743 3.2506,-8.3331 0,-3.80754 -0.41726,-4.36456 -5.00584,-6.68235 -2.27771,-1.15051 -4.20885,-2.09187 -4.29142,-2.09187 -0.0826,0 -0.18451,0.874 -0.22611,1.9422 -0.27756,7.08471 -7.00592,13.69103 -14.64983,14.38414 -1.53468,0.13909 -2.79034,0.40008 -2.79034,0.57979 0,0.17975 1.45415,1.59074 3.23145,3.13561 l 3.23145,2.80882 3.05244,-0.0127 c 1.67886,-0.006 3.95432,-0.21913 5.05662,-0.47322 z m -8.28277,-10.12133 c 5.23625,-1.93633 8.87966,-7.4781 8.14358,-12.38666 -0.27375,-1.82483 -0.62506,-2.35187 -2.63533,-3.95248 -1.2758,-1.01576 -2.45708,-1.84686 -2.62511,-1.84686 -0.168,0 -0.56198,0.70927 -0.87546,1.57619 -0.79851,2.20829 -4.6258,5.50472 -7.51071,6.46897 -2.61679,0.87463 -7.17668,1.00182 -9.08715,0.25343 -1.17185,-0.45903 -1.20412,-0.43086 -0.8638,0.75363 0.46591,1.62163 3.42637,7.35529 4.46323,8.64414 1.63684,2.03463 6.25613,2.24043 10.99075,0.48957 z M 210.01407,75.76891 c 0.98732,-0.51057 1.78512,-1.65638 2.99281,-4.29839 0.90561,-1.98122 1.7845,-4.15168 1.95302,-4.82322 l 0.3065,-1.22105 -1.93428,0.68247 c -2.26385,0.79873 -5.445,0.87615 -7.90708,0.19245 -2.07319,-0.5757 -5.08186,-3.16727 -6.19424,-5.33558 l -0.79569,-1.55094 -2.6014,2.18721 c -2.50214,2.10374 -2.60136,2.27135 -2.60136,4.39196 0,4.53713 3.62709,8.83433 8.6552,10.25434 2.49472,0.70454 6.26756,0.48201 8.12652,-0.47929 z M 48.993219,64.77312 c 3.92814,-1.18217 6.7014,-4.09058 6.66069,-6.98525 -0.0127,-0.91712 -0.82887,-2.16824 -2.88127,-4.41781 l -2.86329,-3.13837 -2.12981,1.50124 c -1.7264,1.21689 -2.58731,1.50835 -4.54517,1.53881 -1.32844,0.0222 -2.87804,-0.13053 -3.44361,-0.33596 -1.02266,-0.37153 -1.02828,-0.34867 -1.02828,4.1923 0,4.24255 0.0835,4.66514 1.18042,5.9687 1.87725,2.23093 5.17679,2.8421 9.05032,1.67634 z M 213.17107,62.82661 c 2.68903,-1.23575 3.25313,-2.28638 3.61478,-6.7329 0.31474,-3.87102 0.289,-4.05347 -0.52868,-3.71767 -2.93076,1.20362 -6.94709,0.83412 -8.75924,-0.8058 -0.76356,-0.69099 -0.98367,-0.54938 -3.47427,2.23522 -2.41523,2.7003 -2.63271,3.11347 -2.37162,4.50537 0.88023,4.69201 6.41451,6.86158 11.51903,4.51578 z M 45.450129,49.59368 c 2.46203,-1.16833 2.67404,-2.0382 1.13349,-4.65098 -0.72858,-1.23565 -1.80951,-3.50602 -2.40211,-5.045252 -0.59259,-1.539217 -1.19926,-2.801611 -1.34813,-2.805293 -0.24994,-0.0064 -2.05471,5.647305 -3.10725,9.733635 -0.38252,1.48489 -0.31796,1.8736 0.43625,2.62781 1.08306,1.08306 3.18331,1.13869 5.28775,0.14005 z M 215.09206,49.40694 c 1.44315,-0.87987 1.50673,-1.02906 1.21696,-2.85461 -0.40526,-2.55292 -2.03942,-9.064602 -2.46625,-9.82729 -0.20955,-0.374391 -0.6422,0.489666 -1.13761,2.27161 -0.43976,1.581683 -1.53026,4.26633 -2.42336,5.9659 -1.38965,2.64445 -1.53561,3.19649 -1.01204,3.82729 1.40334,1.69092 3.6674,1.93088 5.8223,0.6171 z m -92.46798,18.49484 c -6.92736,-1.52274 -12.46431,-5.38823 -15.1919,-10.60589 -1.81583,-3.47351 -2.47963,-6.4073 -2.4694,-10.91394 0.0159,-5.972856 1.0156,-8.698693 5.51771,-15.009194 3.47315,-4.868296 4.40387,-6.479894 5.09621,-8.82442 0.70553,-2.389154 1.84178,-3.171052 2.96943,-2.043373 1.16486,1.164863 2.45692,4.267856 2.46834,5.92795 0.006,0.802061 0.19849,1.574887 0.42914,1.717348 0.86918,0.537178 1.90927,-4.341724 2.27311,-10.662994 0.35508,-6.168095 0.44765,-6.612956 2.05201,-9.8591781 1.17639,-2.380222 2.39333,-4.023419 4.05849,-5.480102 2.10094,-1.83780804 4.39651,-2.72841304 4.4792,-1.73774004 0.0154,0.188642 0.0797,1.78232404 0.142,3.54181704 0.13021,3.67425 1.90874,8.4086251 4.89404,13.0274011 2.52474,3.906267 4.00124,6.945907 4.69972,9.674988 0.68571,2.679473 0.71593,2.655372 2.11104,-1.679849 1.12227,-3.487574 1.89803,-4.63904 2.76467,-4.103415 0.9744,0.602213 3.96382,7.597599 5.07363,11.8726 1.42955,5.506499 1.53963,15.114631 0.21753,18.965961 -2.0199,5.88336 -5.02739,9.98322 -9.35049,12.7466 -5.52151,3.5294 -15.10002,5.01368 -22.23436,3.44543 z m 15.36215,-4.28854 c 5.55585,-1.71601 10.31205,-6.10099 12.27976,-11.32122 2.41188,-6.39872 2.20294,-12.768829 -0.75244,-22.934786 l -0.72401,-2.490452 -0.77181,1.567453 c -1.29769,2.635173 -1.95647,3.485354 -3.32892,4.296126 -1.59395,0.941572 -2.63837,0.637466 -2.6514,-0.771997 -0.019,-2.080118 -2.1998,-7.099581 -5.40098,-12.432457 -2.9044,-4.838505 -4.51946,-8.698662 -5.32879,-12.7362151 -0.32623,-1.627317 -0.8827,-1.264172 -2.2759,1.485201 -1.30006,2.5655621 -2.05775,6.6921311 -2.06264,11.2338051 -0.006,6.188645 -1.91193,10.820892 -5.52828,13.440531 -2.50351,1.813542 -3.14733,1.463958 -3.20392,-1.739611 -0.0397,-2.239852 -0.69704,-5.732451 -0.82293,-4.37135 -0.0254,0.270891 -1.62665,2.841623 -3.55912,5.712629 -3.85683,5.729969 -4.90813,8.058715 -5.34809,11.846683 -0.59193,5.09648 1.39151,11.3889 4.65818,14.7781 4.96995,5.1563 16.0695,7.14071 24.82129,4.43756 z m -12.51294,-2.31743 c -3.96746,-1.0017 -7.29333,-3.52382 -9.09112,-6.89411 -0.93192,-1.74704 -1.06785,-2.62679 -1.05124,-6.80506 0.0191,-4.98818 0.79375,-7.952963 2.21886,-8.499858 0.43461,-0.166726 1.66076,0.741852 3.40066,2.519988 1.49657,1.52944 2.93817,2.78081 3.20357,2.78081 0.93437,0 3.5461,-3.17098 5.52435,-6.707306 3.05053,-5.453075 3.18326,-5.631999 4.17872,-5.631999 1.27972,0 2.75957,3.47151 3.05645,7.16995 0.12738,1.586353 0.43435,2.884315 0.68226,2.884315 0.24801,0 1.65522,-0.66221 3.1274,-1.471547 1.81287,-0.996647 2.8266,-1.321651 3.14109,-1.00713 0.25538,0.255332 0.68715,1.669437 0.95947,3.142187 1.28183,6.93411 -2.61546,14.60965 -8.91551,17.55881 -2.551,1.19414 -7.65109,1.6638 -10.43496,0.96095 z m 9.62959,-4.37164 c 2.85003,-1.42026 4.81727,-3.68114 6.03654,-6.93765 1.00349,-2.68008 1.74362,-7.6553 1.09205,-7.34033 -5.42487,2.62238 -6.76251,3.12691 -7.59203,2.86364 -0.8551,-0.27153 -0.91802,-0.55595 -0.68607,-3.10484 0.14036,-1.54332 0.1419,-3.382427 0.005,-4.086934 -0.2404,-1.223393 -0.34806,-1.131015 -2.39514,2.056552 -2.67684,4.168142 -4.96431,6.610672 -6.56816,7.013202 -1.00582,0.25247 -1.70372,-0.0413 -3.72623,-1.56832 -1.36954,-1.03341 -2.60107,-1.87893 -2.73753,-1.87893 -0.13656,0 -0.24358,1.49101 -0.23818,3.31332 0.0127,4.00761 1.02018,6.52236 3.36414,8.39265 2.28416,1.82256 4.10707,2.38629 7.84713,2.42663 2.59811,0.0286 3.68454,-0.195 5.5991,-1.14899 z"
       id="path1674" />
  </g>
</svg>
